<svg xmlns="http://www.w3.org/2000/svg" viewBox="0 0 203.82 114.65"><defs><style>.cls-1{fill:#5b9bd2;}.cls-2{fill:#fefefe;}.cls-3{fill:#5d9bd2;}.cls-4{fill:#fdfdfe;}.cls-5{fill:#7794b2;}.cls-6{fill:#020203;}</style></defs><title>ALB_1</title><g id="Layer_2" data-name="Layer 2"><g id="Layer_1-2" data-name="Layer 1"><path class="cls-1" d="M0,58.11Q0,29.3,0,.49C0,.09.09,0,.49,0H203.7V65.89c0,.8.1.7-.71.7H125.77a.56.56,0,0,1-.47-.18l-3.08-2.75-7.39-6.6q-5.19-4.61-10.37-9.22l-8.15-7.25L85,30.48l-9-8L65.57,13.23c-2.22-2-4.46-4-6.68-5.95a.39.39,0,0,0-.63,0l-7.54,6.59L41,22.41,29.58,32.32l-9.48,8.3L5.33,53.5Z"/><path class="cls-1" d="M0,114.51V95.75a17,17,0,0,0,1.9-1.61l11.74-10.3,11.06-9.73q6.87-6,13.77-12.08L51.73,50.39c2.2-1.93,4.41-3.86,6.6-5.81.3-.27.48-.25.74,0s.69.66,1,1L71.56,55.88c2.41,2.18,4.81,4.37,7.22,6.54l13.65,12.3c2.77,2.5,5.52,5,8.29,7.5q6.8,6.15,13.61,12.27c2.4,2.17,4.83,4.29,7.16,6.52a4.27,4.27,0,0,0,3.25,1.23q39.17,0,78.34,0c.51,0,.64.13.63.64,0,3.62,0,7.24,0,10.87,0,.8,0,.8-.81.8ZM58.76,91.63a21.87,21.87,0,0,0,9.67-2.09,16.4,16.4,0,0,0,6.79-5.83,11.92,11.92,0,0,0,2-7.8,13,13,0,0,0-4.43-8.54,19.66,19.66,0,0,0-12.69-5,20.77,20.77,0,0,0-9.94,1.9,15.9,15.9,0,0,0-7.84,7.21,11.65,11.65,0,0,0-1,8.23,14.07,14.07,0,0,0,6.23,8.51A20.32,20.32,0,0,0,58.76,91.63Z"/><path class="cls-2" d="M0,114.51H202.89c.81,0,.81,0,.81-.8,0-3.63,0-7.25,0-10.87,0-.51-.12-.64-.63-.64q-39.18,0-78.34,0a4.27,4.27,0,0,1-3.25-1.23c-2.33-2.23-4.76-4.35-7.16-6.52q-6.81-6.13-13.61-12.27c-2.77-2.49-5.52-5-8.29-7.5L78.78,62.42c-2.41-2.17-4.81-4.36-7.22-6.54L60.11,45.57c-.35-.32-.71-.65-1-1s-.44-.28-.74,0c-2.19,2-4.4,3.88-6.6,5.81L38.48,62q-6.88,6-13.77,12.08L13.65,83.84,1.91,94.14A17,17,0,0,1,0,95.75V92.67c.23,0,.33-.17.47-.3,1.9-1.63,3.79-3.28,5.69-4.92L19.23,76.16l10.65-9.23,14.21-12.3q7.2-6.23,14.37-12.46c.49-.43.69-.17,1,.13q5.88,5.24,11.77,10.43l10,8.87,12,10.65q5,4.44,10,8.88l7.36,6.55q4.59,4.08,9.19,8.15c1.61,1.43,3.23,2.84,4.85,4.27.15.18.36.1.54.1h78c.15,0,.35.1.47-.1V94.58c-.18-.22-.42-.1-.63-.1H123.62l-1.38,0c-.13-.14-.26-.29-.4-.42L108.69,82.35,96,71.05l-12.35-11L71.93,49.65,59,38.09c-.29-.26-.48-.28-.75,0-.53.5-1.07,1-1.61,1.46L44.79,50l-8.91,7.91-12,10.65Q20,72,16.06,75.48L6.83,83.67,0,89.71V84c.21.07.33-.1.45-.21l8.31-7.23,10.11-8.79L31.63,56.66l8.67-7.54,10-8.72q4.14-3.59,8.27-7.2c.18-.16.3-.17.48,0,.62.57,1.26,1.13,1.89,1.7L73.1,45.66,82.42,54l14,12.46,7.27,6.48,14.22,12.63,4.86,4.34c.1.08.24.29.34.19.3-.31.66-.15,1-.15h78.71a3.84,3.84,0,0,1,.48,0c.28,0,.41-.06.41-.37,0-1.36,0-2.73,0-4.09-.18-.22-.42-.1-.63-.1H124c-.23,0-.46,0-.69,0-.48-.06-.73-.47-1-.75-3-2.56-5.91-5.15-8.86-7.73L98.11,63.63c-4-3.49-8-7-12-10.49Q78.5,46.52,70.87,39.9,64.9,34.71,59,29.49c-.19-.17-.31-.21-.53,0l-8.61,7.45L37.54,47.5q-5.38,4.66-10.76,9.33L12.34,69.29,1.61,78.57A7.89,7.89,0,0,1,0,79.85V72.74a1.31,1.31,0,0,0,.48-.32C3.05,70.23,5.6,68,8.17,65.84L21.7,54.29,33.7,44,47.24,32.48,58.3,23c.28-.24.46-.24.72,0,1.14,1,2.28,2,3.43,3,2.85,2.48,5.69,5,8.54,7.44L83,43.86c2.84,2.47,5.66,5,8.5,7.41l11.11,9.66q5.4,4.68,10.79,9.39c3.7,3.22,7.42,6.42,11.11,9.66a1.5,1.5,0,0,0,1.08.4h77.65c.37,0,.48-.09.48-.47,0-1.64,0-3.28,0-4.93,0-.87.12-.75-.76-.75q-39.85,0-79.72,0a2.17,2.17,0,0,1-1.56-.61c-1.23-1.14-2.5-2.23-3.76-3.34l-12.66-11.1L95,50.19,82.29,39c-3.4-3-6.78-6-10.18-9-4.34-3.83-8.7-7.64-13-11.48-.37-.33-.59-.34-1,0-2,1.71-4,3.4-5.95,5.1l-9.94,8.5L29.46,43.05l-9.94,8.51L5.91,63.18l-5.9,5V58.11L5.33,53.5,20.1,40.62l9.48-8.3L41,22.41l9.76-8.54,7.54-6.59a.39.39,0,0,1,.63,0c2.22,2,4.46,4,6.68,6L76,22.49l9,8L96.31,40.59l8.15,7.25q5.17,4.62,10.37,9.22l7.39,6.6,3.08,2.75a.56.56,0,0,0,.47.18H203c.81,0,.71.1.71-.7V0s.11,0,.11,0,0,.29,0,.43q0,56.82,0,113.63c0,.45-.11.51-.53.51l-202.8,0C.33,114.61.13,114.74,0,114.51Z"/><path class="cls-3" d="M0,68.18l5.9-5L19.52,51.56l9.94-8.51,12.77-10.9,9.94-8.5c2-1.7,4-3.39,5.95-5.1.36-.32.58-.31,1,0,4.34,3.84,8.7,7.65,13,11.48,3.4,3,6.78,6,10.18,9L95,50.19l10.21,9,12.66,11.1c1.26,1.11,2.53,2.2,3.76,3.34a2.17,2.17,0,0,0,1.56.61q39.87,0,79.72,0c.88,0,.75-.12.76.75,0,1.65,0,3.29,0,4.93,0,.38-.11.47-.48.47H125.58a1.5,1.5,0,0,1-1.08-.4c-3.69-3.24-7.41-6.44-11.11-9.66s-7.19-6.27-10.79-9.39L91.49,51.27c-2.84-2.46-5.66-4.94-8.5-7.41L71,33.44c-2.85-2.47-5.69-5-8.54-7.44-1.15-1-2.29-2-3.43-3-.26-.23-.44-.23-.72,0L47.24,32.48,33.7,44l-12,10.26L8.17,65.84C5.6,68,3.05,70.23.49,72.42a1.31,1.31,0,0,1-.48.32Z"/><path class="cls-3" d="M0,89.71l6.82-6,9.23-8.19Q20,72,23.87,68.56l12-10.65L44.79,50,56.6,39.53c.54-.48,1.08-1,1.61-1.46.27-.26.46-.24.75,0l13,11.56L83.64,60.07,96,71.05l12.7,11.3L121.84,94c.14.13.27.28.4.42s.35.13.53.13h80.91v5.52h-79c-1.62-1.43-3.24-2.84-4.85-4.27q-4.6-4.06-9.19-8.15l-7.36-6.55q-5-4.45-10-8.88l-12-10.65-10-8.87q-5.88-5.2-11.77-10.43c-.34-.3-.54-.56-1-.13q-7.17,6.26-14.37,12.46L29.88,66.93,19.23,76.16,6.17,87.45c-1.9,1.64-3.79,3.29-5.69,4.92-.14.13-.24.32-.47.3Z"/><path class="cls-3" d="M0,79.85a7.89,7.89,0,0,0,1.6-1.28l10.73-9.28L26.78,56.83q5.38-4.65,10.76-9.33L49.81,36.91l8.61-7.45c.22-.18.34-.14.53,0q6,5.22,11.92,10.41,7.6,6.63,15.23,13.24c4,3.49,8,7,12,10.49L113.37,76.9c2.95,2.58,5.9,5.17,8.86,7.73.32.28.57.69,1,.75.17.15.38.08.56.08h79.84c0,1.36,0,2.73,0,4.09,0,.31-.13.4-.41.37a3.84,3.84,0,0,0-.48,0H124.11c-.33,0-.69-.16-1,.15-.1.1-.24-.11-.34-.19l-4.86-4.34L103.7,72.92l-7.27-6.48L82.42,54,73.1,45.66,61,34.9c-.63-.57-1.27-1.13-1.89-1.7-.18-.17-.3-.16-.48,0q-4.12,3.61-8.27,7.2l-10,8.72-8.67,7.54L18.88,67.75,8.77,76.54.46,83.77c-.12.11-.24.28-.45.21Z"/><path class="cls-4" d="M58.76,91.63A20.32,20.32,0,0,1,47.5,88.22a14.07,14.07,0,0,1-6.23-8.51,11.65,11.65,0,0,1,1-8.23,15.9,15.9,0,0,1,7.84-7.21,20.77,20.77,0,0,1,9.94-1.9,19.66,19.66,0,0,1,12.69,5,13,13,0,0,1,4.43,8.54,11.92,11.92,0,0,1-2,7.8,16.4,16.4,0,0,1-6.79,5.83A21.87,21.87,0,0,1,58.76,91.63Zm1-2.55a16.09,16.09,0,0,0,2.69-.22,14.58,14.58,0,0,0,8.69-4.41,10,10,0,0,0,2.74-9.14,11,11,0,0,0-4.81-7,16,16,0,0,0-10.9-2.74,15,15,0,0,0-9.76,4.51,10.17,10.17,0,0,0-.14,14.19A15.45,15.45,0,0,0,59.73,89.08Z"/><path class="cls-5" d="M203.68,94.58H122.77c-.18,0-.4.1-.53-.13l1.38,0h79.43C203.26,94.48,203.5,94.36,203.68,94.58Z"/><path class="cls-5" d="M203.68,85.46H123.84c-.18,0-.39.07-.56-.08.23,0,.46,0,.69,0h79.08C203.26,85.36,203.5,85.24,203.68,85.46Z"/><path class="cls-5" d="M124.67,100.1h79c-.12.2-.32.1-.47.1h-78C125,100.2,124.82,100.28,124.67,100.1Z"/><path class="cls-6" d="M59.73,89.08a15.45,15.45,0,0,1-11.49-4.76,10.17,10.17,0,0,1,.14-14.19,15,15,0,0,1,9.76-4.51A16,16,0,0,1,69,68.36a11,11,0,0,1,4.81,7,10,10,0,0,1-2.74,9.14,14.58,14.58,0,0,1-8.69,4.41A16.09,16.09,0,0,1,59.73,89.08Z"/></g></g></svg>