<svg xmlns="http://www.w3.org/2000/svg" viewBox="0 0 555.28 115.13"><defs><style>.cls-1{fill:#5b9bd2;}.cls-2{fill:#fefefe;}.cls-3{fill:#5d9bd2;}.cls-4{fill:#fdfdfe;}.cls-5{fill:#7794b2;}.cls-6{fill:#020203;}.cls-7{fill:#fff;}</style></defs><title>ALB Full Logo</title><path class="cls-1" d="M0,58.14Q0,29.34,0,.52C0,.12.09,0,.49,0H203.7V65.93c0,.8.1.69-.71.69H125.77a.63.63,0,0,1-.47-.18l-3.08-2.76q-3.69-3.3-7.39-6.59l-10.37-9.22-8.15-7.26L85,30.52l-9-8L65.57,13.26c-2.22-2-4.46-4-6.68-5.95a.4.4,0,0,0-.63,0L50.72,13.9Q45.85,18.18,41,22.44L29.58,32.36,20.1,40.65,5.33,53.53Z"/><path class="cls-1" d="M0,114.55V95.78a18.07,18.07,0,0,0,1.9-1.6l11.74-10.3,11.06-9.73L38.48,62.06,51.73,50.42c2.2-1.93,4.41-3.86,6.6-5.81.3-.26.48-.25.74,0s.69.66,1,1L71.56,55.92c2.41,2.17,4.81,4.36,7.22,6.54l13.65,12.3c2.77,2.49,5.52,5,8.29,7.5l13.61,12.27c2.4,2.16,4.83,4.29,7.16,6.52a4.31,4.31,0,0,0,3.25,1.23q39.17-.06,78.34,0c.51,0,.64.12.63.63,0,3.63,0,7.25,0,10.87,0,.81,0,.81-.81.81ZM58.76,91.66a21.74,21.74,0,0,0,9.67-2.09,16.38,16.38,0,0,0,6.79-5.82,12,12,0,0,0,2-7.81,13,13,0,0,0-4.43-8.53,19.61,19.61,0,0,0-12.69-5,20.76,20.76,0,0,0-9.94,1.89,16,16,0,0,0-7.84,7.21,11.66,11.66,0,0,0-1,8.23,14.09,14.09,0,0,0,6.23,8.52A20.31,20.31,0,0,0,58.76,91.66Z"/><path class="cls-2" d="M0,114.55H202.89c.81,0,.81,0,.81-.81,0-3.62,0-7.24,0-10.87,0-.51-.12-.63-.63-.63q-39.18,0-78.34,0a4.31,4.31,0,0,1-3.25-1.23c-2.33-2.23-4.76-4.36-7.16-6.52L100.72,82.26c-2.77-2.5-5.52-5-8.29-7.5L78.78,62.46c-2.41-2.18-4.81-4.37-7.22-6.54L60.11,45.6c-.35-.32-.71-.64-1-1s-.44-.27-.74,0c-2.19,2-4.4,3.88-6.6,5.81L38.48,62.06,24.71,74.15,13.65,83.88,1.91,94.18A18.07,18.07,0,0,1,0,95.78V92.71c.23,0,.33-.18.47-.3,1.9-1.64,3.79-3.29,5.69-4.92L19.23,76.2,29.88,67l14.21-12.3c4.8-4.15,9.59-8.29,14.37-12.47.49-.43.69-.17,1,.14L71.26,52.77l10,8.87,12,10.64,10,8.88c2.46,2.18,4.9,4.38,7.36,6.56l9.19,8.15,4.85,4.26c.15.19.36.11.54.11h78c.15,0,.35.1.47-.11V94.61c-.18-.21-.42-.1-.63-.1H123.62l-1.38,0c-.13-.14-.26-.28-.4-.41L108.69,82.39,96,71.08l-12.35-11L71.93,49.68,59,38.12c-.29-.26-.48-.27-.75,0-.53.5-1.07,1-1.61,1.46L44.79,50l-8.91,7.91-12,10.65-7.81,6.92L6.83,83.7,0,89.74V84c.21.08.33-.1.45-.21l8.31-7.22,10.11-8.8L31.63,56.7l8.67-7.55,10-8.71,8.27-7.2a.29.29,0,0,1,.48,0c.62.58,1.26,1.14,1.89,1.7Q67,40.32,73.1,45.7L82.42,54l14,12.45L103.7,73l14.22,12.63,4.86,4.33c.1.09.24.3.34.2.3-.31.66-.16,1-.16h78.71c.16,0,.32,0,.48,0s.41,0,.41-.37c0-1.36,0-2.72,0-4.08-.18-.22-.42-.11-.63-.11H124l-.69,0c-.48-.06-.73-.47-1-.74-3-2.57-5.91-5.16-8.86-7.73L98.11,63.66l-12-10.48q-7.6-6.63-15.23-13.24L59,29.52c-.19-.16-.31-.21-.53,0L49.81,37,37.54,47.54q-5.38,4.65-10.76,9.33L12.34,69.32c-3.58,3.09-7.15,6.2-10.73,9.28A7.57,7.57,0,0,1,0,79.88v-7.1a1.22,1.22,0,0,0,.48-.33c2.56-2.19,5.11-4.39,7.68-6.58L21.7,54.32l12-10.26L47.24,32.51Q52.78,27.79,58.3,23A.46.46,0,0,1,59,23q1.71,1.5,3.43,3L71,33.48,83,43.9c2.84,2.46,5.66,4.94,8.5,7.41L102.6,61l10.79,9.39c3.7,3.22,7.42,6.43,11.11,9.66a1.51,1.51,0,0,0,1.08.41h68.85c2.93,0,5.87,0,8.8,0,.37,0,.48-.09.48-.47,0-1.65,0-3.29,0-4.93,0-.88.12-.76-.76-.76H123.22a2.12,2.12,0,0,1-1.56-.61c-1.23-1.13-2.5-2.23-3.76-3.33-4.22-3.71-8.45-7.4-12.66-11.11q-5.11-4.48-10.21-9L82.29,39c-3.4-3-6.78-6-10.18-9q-6.51-5.73-13-11.47c-.37-.33-.59-.34-1,0-2,1.72-4,3.4-5.95,5.1l-9.94,8.51q-6.39,5.45-12.77,10.9l-9.94,8.5L5.91,63.22l-5.9,5V58.14l5.32-4.61L20.1,40.65l9.48-8.29L41,22.44q4.89-4.26,9.76-8.54l7.54-6.59a.4.4,0,0,1,.63,0c2.22,2,4.46,4,6.68,6L76,22.52l9,8,11.35,10.1,8.15,7.26,10.37,9.22q3.7,3.28,7.39,6.59l3.08,2.76a.63.63,0,0,0,.47.18H203c.81,0,.71.11.71-.69V0s.11,0,.11.06,0,.28,0,.42q0,56.82,0,113.64c0,.44-.11.51-.53.51q-101.4,0-202.8,0C.33,114.65.13,114.77,0,114.55Z"/><path class="cls-3" d="M0,68.22l5.9-5L19.52,51.59l9.94-8.5q6.38-5.46,12.77-10.9l9.94-8.51c2-1.7,4-3.38,5.95-5.1.36-.31.58-.3,1,0q6.51,5.76,13,11.47c3.4,3,6.78,6,10.18,9L95,50.22q5.1,4.5,10.21,9c4.21,3.71,8.44,7.4,12.66,11.11,1.26,1.1,2.53,2.2,3.76,3.33a2.12,2.12,0,0,0,1.56.61h79.72c.88,0,.75-.12.76.76,0,1.64,0,3.28,0,4.93,0,.38-.11.47-.48.47-2.93,0-5.87,0-8.8,0H125.58A1.51,1.51,0,0,1,124.5,80c-3.69-3.23-7.41-6.44-11.11-9.66L102.6,61,91.49,51.31c-2.84-2.47-5.66-5-8.5-7.41L71,33.48,62.45,26Q60.72,24.55,59,23a.46.46,0,0,0-.72,0q-5.52,4.76-11.06,9.47L33.7,44.06l-12,10.26L8.17,65.87C5.6,68.06,3.05,70.26.49,72.45a1.22,1.22,0,0,1-.48.33Z"/><path class="cls-3" d="M0,89.74l6.82-6,9.23-8.19,7.81-6.92,12-10.65L44.79,50,56.6,39.56c.54-.48,1.08-1,1.61-1.46.27-.25.46-.24.75,0l13,11.56L83.64,60.11,96,71.08l12.7,11.31,13.15,11.68c.14.13.27.27.4.41s.35.13.53.13q40.46,0,80.91,0v5.52h-79l-4.85-4.26-9.19-8.15c-2.46-2.18-4.9-4.38-7.36-6.56l-10-8.88-12-10.64-10-8.87L59.49,42.34c-.34-.31-.54-.57-1-.14-4.78,4.18-9.57,8.32-14.37,12.47L29.88,67,19.23,76.2,6.17,87.49c-1.9,1.63-3.79,3.28-5.69,4.92-.14.12-.24.32-.47.3Z"/><path class="cls-3" d="M0,79.88a7.57,7.57,0,0,0,1.6-1.28c3.58-3.08,7.15-6.19,10.73-9.28L26.78,56.87q5.38-4.66,10.76-9.33L49.81,37l8.61-7.45c.22-.19.34-.14.53,0L70.87,39.94q7.6,6.63,15.23,13.24l12,10.48,15.26,13.28c2.95,2.57,5.9,5.16,8.86,7.73.32.27.57.68,1,.74.17.15.38.08.56.08h79.84c0,1.36,0,2.72,0,4.08,0,.32-.13.4-.41.37s-.32,0-.48,0H124.11c-.33,0-.69-.15-1,.16-.1.1-.24-.11-.34-.2l-4.86-4.33L103.7,73l-7.27-6.49L82.42,54,73.1,45.7Q67,40.3,61,34.93c-.63-.56-1.27-1.12-1.89-1.7a.29.29,0,0,0-.48,0l-8.27,7.2-10,8.71L31.63,56.7,18.88,67.78,8.77,76.58.46,83.8c-.12.11-.24.29-.45.21Z"/><path class="cls-4" d="M58.76,91.66a20.31,20.31,0,0,1-11.26-3.4,14.09,14.09,0,0,1-6.23-8.52,11.66,11.66,0,0,1,1-8.23,16,16,0,0,1,7.84-7.21,20.76,20.76,0,0,1,9.94-1.89,19.61,19.61,0,0,1,12.69,5,13,13,0,0,1,4.43,8.53,12,12,0,0,1-2,7.81,16.38,16.38,0,0,1-6.79,5.82A21.74,21.74,0,0,1,58.76,91.66Zm1-2.55a15.1,15.1,0,0,0,2.69-.21,14.59,14.59,0,0,0,8.69-4.42,10,10,0,0,0,2.74-9.14A11,11,0,0,0,69,68.4a16,16,0,0,0-10.9-2.75,15,15,0,0,0-9.76,4.52,10.16,10.16,0,0,0-.14,14.18A15.45,15.45,0,0,0,59.73,89.11Z"/><path class="cls-5" d="M203.68,94.61q-40.45,0-80.91,0c-.18,0-.4.1-.53-.13l1.38,0h79.43C203.26,94.51,203.5,94.4,203.68,94.61Z"/><path class="cls-5" d="M203.68,85.5H123.84c-.18,0-.39.07-.56-.08l.69,0h79.08C203.26,85.39,203.5,85.28,203.68,85.5Z"/><path class="cls-5" d="M124.67,100.13h79c-.12.21-.32.11-.47.11h-78C125,100.24,124.82,100.32,124.67,100.13Z"/><path class="cls-6" d="M59.73,89.11a15.45,15.45,0,0,1-11.49-4.76,10.16,10.16,0,0,1,.14-14.18,15,15,0,0,1,9.76-4.52A16,16,0,0,1,69,68.4a11,11,0,0,1,4.81,6.94,10,10,0,0,1-2.74,9.14,14.59,14.59,0,0,1-8.69,4.42A15.1,15.1,0,0,1,59.73,89.11Z"/><text/><path class="cls-7" d="M268.67,49.38H258.26L254,37.6H235l-4.23,11.78H220.3l19.28-49h9.87ZM251.36,30.23,244.52,11.3l-6.85,18.93h13.69Z"/><path class="cls-7" d="M284.5,41.47A8.51,8.51,0,0,0,289.83,40a4.85,4.85,0,0,0,1.93-4,5.41,5.41,0,0,0-1.25-3.69c-1-1.15-3-2.28-5.83-3.39a22.38,22.38,0,0,1-9.22-5.36,12.12,12.12,0,0,1-3.75-9A13.14,13.14,0,0,1,272.9,8.9a13.32,13.32,0,0,1,3.45-4.56,16.58,16.58,0,0,1,5.17-2.85,21,21,0,0,1,6.49-1,25.71,25.71,0,0,1,3.93.26,29.18,29.18,0,0,1,3.06.63,14.07,14.07,0,0,1,3.78,1.55l1.43.77-2.86,8.45-2-1.07a16,16,0,0,0-7.5-1.91,9,9,0,0,0-2.94.42,5.78,5.78,0,0,0-2,1.1,4,4,0,0,0-1.1,1.52,4.3,4.3,0,0,0-.32,1.6,4.82,4.82,0,0,0,1.36,3.57,14,14,0,0,0,2.32,1.46c1,.5,2.23,1.06,3.81,1.7a31,31,0,0,1,5.54,2.62,15.91,15.91,0,0,1,3.68,3.09,12.93,12.93,0,0,1,3.34,9.22,14.58,14.58,0,0,1-1.13,5.71,12.79,12.79,0,0,1-3.34,4.64,14.73,14.73,0,0,1-5.56,3.25,23.24,23.24,0,0,1-7.35,1.1,25.66,25.66,0,0,1-3.48-.24,33.89,33.89,0,0,1-3.42-.65,24.37,24.37,0,0,1-3.09-1,12.43,12.43,0,0,1-2.5-1.28l-1.19-.83L273,37.54l2.26,1.31a16.33,16.33,0,0,0,4.37,1.94A17.91,17.91,0,0,0,284.5,41.47Z"/><path class="cls-7" d="M306.69,0h8.93V49.38h-8.93Z"/><path class="cls-7" d="M368,49.38H357.56L353.28,37.6h-19l-4.23,11.78H319.6l19.28-49h9.88ZM350.66,30.23,343.82,11.3,337,30.23h13.68Z"/><path class="cls-7" d="M408.74,0V49.38H398.62l-19.4-35.87V49.38h-8.68V0H382l18,33.62V0Z"/><path class="cls-7" d="M464.25,40.88v8.5H439.14V0H448V40.88Z"/><path class="cls-7" d="M468.05,0H477V49.38h-8.93Z"/><path class="cls-7" d="M512.92,0V8.09H492.51V19.4h17.25v8H492.51v22h-8.87V0Z"/><path class="cls-7" d="M540.11,8.33V49.38h-9.58V8.33H515.41V0h39.87V8.33Z"/><path class="cls-7" d="M247.56,96.18a11.07,11.07,0,0,1,2.1,6.75,12,12,0,0,1-2.9,8.15q-2.85,3.4-8.9,3.4h-16.5V73h14.75a20,20,0,0,1,6.2.85,8.75,8.75,0,0,1,4.3,3.7A11,11,0,0,1,248.46,84a10.56,10.56,0,0,1-1.85,6.1,8,8,0,0,1-3.55,2.85A9.21,9.21,0,0,1,247.56,96.18Zm-7.85-7.65a5.8,5.8,0,0,0,1.3-3.85,4.58,4.58,0,0,0-1.45-3.75,5.5,5.5,0,0,0-3.55-1.2h-7.5V90h7.6A4.59,4.59,0,0,0,239.71,88.53Zm-11.2,18.9h8.1a5.62,5.62,0,0,0,4-1.45,5.18,5.18,0,0,0,1.4-3.9,5.42,5.42,0,0,0-1.45-3.85,5.28,5.28,0,0,0-3.9-1.5h-8.15Z"/><path class="cls-7" d="M291.51,114.48h-8.75l-3.6-9.9h-16l-3.55,9.9h-8.8l16.2-41.2h8.3ZM277,98.38l-5.75-15.9-5.75,15.9H277Z"/><path class="cls-7" d="M325.76,73v41.5h-8.5L301,84.33v30.15h-7.3V73h9.6l15.15,28.25V73Z"/><path class="cls-7" d="M362.56,91.43v23h-14.7c-.1,0-.44,0-1,0a13.67,13.67,0,0,1-2.1-.32,22.12,22.12,0,0,1-2.8-.83,15.29,15.29,0,0,1-3.15-1.55,16.17,16.17,0,0,1-5.85-6.15,26.36,26.36,0,0,1-2.85-11.8c0-.43,0-.93.05-1.5s.09-1,.17-1.62.21-1.31.38-2.08a21.19,21.19,0,0,1,1.7-4.85,19.34,19.34,0,0,1,3.4-5Q341.36,73,351.46,73h.05c.5,0,1.17,0,2,.08s1.74.14,2.68.27c1.23.17,2.33.35,3.3.55a14.43,14.43,0,0,1,1.5.35h.1l-1.9,7-.15-.05-1.05-.2-1.13-.2-1.32-.2c-.67-.1-1.34-.17-2-.22l-1.85-.13a4.23,4.23,0,0,1-.45,0c-.2,0-.44,0-.7,0-.6,0-1.3.05-2.1.13a14.67,14.67,0,0,0-2.53.5,13.79,13.79,0,0,0-2.62,1,9.18,9.18,0,0,0-2.4,1.82q-3.41,3.56-3.15,10.15.39,8.61,5,12a7.88,7.88,0,0,0,1.7,1,10.35,10.35,0,0,0,1.6.57,7,7,0,0,0,1.35.25,9.42,9.42,0,0,0,.95,0h7.35V97.58h-7.3V91.43Z"/><path class="cls-7" d="M388.46,107.33v7.15h-21.1V73h7.45v34.35Z"/><path class="cls-7" d="M430.56,114.48h-8.75l-3.6-9.9H402.26l-3.55,9.9h-8.8l16.2-41.2h8.3ZM416,98.38l-5.75-15.9-5.75,15.9H416Z"/><path class="cls-7" d="M447.41,73a13.18,13.18,0,0,1,7.25,2.3,15.93,15.93,0,0,1,2.65,2.43,15.24,15.24,0,0,1,2.32,3.7,24.62,24.62,0,0,1,1.65,5.25,35,35,0,0,1,.63,7.07,35.4,35.4,0,0,1-.63,7.1,23.9,23.9,0,0,1-1.65,5.25,14.84,14.84,0,0,1-5,6.1,13,13,0,0,1-7.25,2.3h-14.5V73Zm0,34a6.37,6.37,0,0,0,3.55-1.7,9.29,9.29,0,0,0,1.3-1.55,11.13,11.13,0,0,0,1.17-2.32,16.46,16.46,0,0,0,.83-3.23,30.75,30.75,0,0,0,0-8.57,16.5,16.5,0,0,0-.83-3.25A12,12,0,0,0,452.26,84a11.75,11.75,0,0,0-1.3-1.63,6.61,6.61,0,0,0-3.55-1.8h-7.15v26.4Z"/><path class="cls-7" d="M491,79.78H473.66v10.4h14.65V97H473.66v10.65H491v6.85H466.16V73H491Z"/><path class="cls-7" d="M505.85,107.83a7.12,7.12,0,0,0,4.48-1.25,4.06,4.06,0,0,0,1.63-3.4,4.6,4.6,0,0,0-1-3.1,13.36,13.36,0,0,0-4.9-2.85,18.61,18.61,0,0,1-7.75-4.5,10.19,10.19,0,0,1-3.16-7.55A11,11,0,0,1,499,76.63a14.06,14.06,0,0,1,4.34-2.4,18,18,0,0,1,5.45-.85,21.52,21.52,0,0,1,3.3.23,24.9,24.9,0,0,1,2.58.52,13,13,0,0,1,1.9.65,13.19,13.19,0,0,1,1.27.65l1.2.65-2.39,7.1-1.7-.9a13.52,13.52,0,0,0-6.3-1.6,7.8,7.8,0,0,0-2.48.35,5,5,0,0,0-1.67.93,3.26,3.26,0,0,0-.93,1.27,3.79,3.79,0,0,0-.28,1.35,4,4,0,0,0,1.16,3,11.87,11.87,0,0,0,2,1.23,34.89,34.89,0,0,0,3.19,1.42,27.28,27.28,0,0,1,4.66,2.2,13.55,13.55,0,0,1,3.09,2.6,10.91,10.91,0,0,1,2.81,7.75,12.27,12.27,0,0,1-.95,4.8,10.92,10.92,0,0,1-2.8,3.9,12.47,12.47,0,0,1-4.68,2.73,19.37,19.37,0,0,1-6.18.92,20.67,20.67,0,0,1-2.92-.2,24.26,24.26,0,0,1-2.87-.55,19.37,19.37,0,0,1-2.6-.82,11.54,11.54,0,0,1-2.11-1.08l-1-.7,2.16-7.25,1.89,1.1a13.92,13.92,0,0,0,3.68,1.63A15,15,0,0,0,505.85,107.83Z"/><path class="cls-7" d="M554,73v41.5h-7.6V96.68H532.1v17.8h-7.6V73h7.6v16.8h14.25V73Z"/></svg>